<svg fill="none" height="15" viewBox="0 0 15 15" width="15" xmlns="http://www.w3.org/2000/svg"><g fill="#000"><path d="m2.50278 1.90694c1.32649-1.185973 3.07756-1.90694 4.99722-1.90694 2.8784 0 5.3778 1.62097 6.6351 4h-6.6351c-1.4541 0-2.70108.88673-3.22971 2.14895z"/><path d="m1.74548 2.68942c-1.089624 1.3021-1.74548 2.97965-1.74548 4.81058 0 3.3241 2.16179 6.1427 5.15637 7.1267l2.81089-3.6576c-.15286.0204-.30883.0309-.46726.0309-1.66354 0-3.05602-1.16058-3.41191-2.71623-.01934-.02814-.03609-.05869-.04974-.09147z"/><path d="m6.2149 14.8904c.41755.072.84694.1096 1.2851.1096 4.1426 0 7.5-3.3574 7.5-7.5 0-.87852-.151-1.72172-.4285-2.50508-.0233.00335-.0472.00508-.0715.00508h-4.55051c.64831.63526 1.05051 1.52066 1.05051 2.5 0 .92321-.3574 1.76293-.9415 2.38832-.0039.00551-.0079.01096-.012.01636z"/><path d="m5 7.5c0-1.38071 1.11929-2.5 2.5-2.5s2.5 1.11929 2.5 2.5-1.11929 2.5-2.5 2.5-2.5-1.11929-2.5-2.5z"/></g></svg>